#N canvas 302 22 848 895 12;
#X obj 153 836 dac~;
#X obj 39 567 noise~;
#X msg 683 288 \; pd dsp \$1;
#X obj 39 718 *~;
#X obj 307 725 line;
#X msg 307 627 0.2;
#X msg 407 627 0;
#X obj 191 415 line;
#X msg 48 335 100 5000;
#X obj 443 60 tgl 40 0 empty empty empty 17 7 0 10 -262144 -1 -1 0
1;
#X obj 191 567 phasor~;
#X obj 227 271 pipe 5000;
#X msg 227 335 -200 2000;
#X obj 48 213 metro 8000;
#X floatatom 191 486 5 0 0 0 - - -;
#X obj 307 486 metro 80;
#X obj 510 565 metro 82;
#X obj 420 452 knob 50 50 1 200 0 1 80 empty empty 0 -8 128 8 -262144
-1 -1 0 1;
#X obj 620 452 knob 50 50 1 200 0 1 82 empty empty 0 -8 128 8 -262144
-1 -1 0 1;
#X obj 443 315 print this;
#X msg 443 255 is how we roll;
#X obj 152 783 *~ 0.4;
#X obj 307 415 r or reroll;
#X obj 510 495 r or reroll;
#X obj 443 113 s or reroll;
#X obj 443 211 r or reroll;
#X obj 683 223 r or reroll;
#X obj 48 144 r or reroll;
#X text 505 65 <<<------ click to on sound and patch;
#X text 502 463 <<<-------;
#X text 684 463 <<<-------;
#X text 683 486 click/drag to see;
#X text 740 506 how we roll;
#X connect 1 0 3 0;
#X connect 3 0 21 0;
#X connect 4 0 21 1;
#X connect 5 0 4 0;
#X connect 6 0 4 0;
#X connect 7 0 14 0;
#X connect 8 0 7 0;
#X connect 9 0 24 0;
#X connect 10 0 3 1;
#X connect 11 0 12 0;
#X connect 12 0 7 0;
#X connect 13 0 8 0;
#X connect 13 0 11 0;
#X connect 14 0 10 0;
#X connect 15 0 5 0;
#X connect 16 0 6 0;
#X connect 17 0 15 1;
#X connect 18 0 16 1;
#X connect 20 0 19 0;
#X connect 21 0 0 0;
#X connect 21 0 0 1;
#X connect 22 0 15 0;
#X connect 23 0 16 0;
#X connect 25 0 20 0;
#X connect 26 0 2 0;
#X connect 27 0 13 0;
